# xmcd
#
# Track frame offsets:
#	150
#	10681
#	38182
#	52503
#	74248
#	88188
#	104128
#	115907
#	127574
#	154706
#	168643
#	180583
#	199621
#	219378
#	236543
#	259276
#
# Disc length: 3463 seconds
#
# Revision: 1
# Processed by: cddbd v1.5.1PL2 Copyright (c) Steve Scherf et al.
# Submitted via: audiograbber 1.83.01
#
DISCID=d80d8510
DTITLE=Various Artist - ASK 0522 Motown Classics Vol. 1B
DYEAR=2003
DGENRE=R&B
TTITLE0=James Brown - Papa's Got A Brand New Bag
TTITLE1=James Brown - Get Up Offa That Thing (Release The Pressure)
TTITLE2=Jimmy Ruffin - What Becomes Of The Broken Hearted
TTITLE3=Luther Vandross - Here And Now
TTITLE4=Marvin Gaye - How Sweet It Is (To Be Loved By You)
TTITLE5=Marvin Gaye - What's Going On?
TTITLE6=Marvin Gaye and Tammi Terrell - Ain't No Mountain High Enough
TTITLE7=Otis Redding - Sittin' On The Dock Of The Bay
TTITLE8=Patti LaBelle - If You Don't Know Me By Now
TTITLE9=Smokey Robinson and The Miracles - Tracks Of My Tears
TTITLE10=Temptations, The - Way You Do The Things You Do, The
TTITLE11=Temptations, The - Ball Of Confusion
TTITLE12=Four Tops, The - Indestructable
TTITLE13=Tina Turner - What's Love Got To Do With It?
TTITLE14=Wilson Pickett - In The Midnight Hour
TTITLE15=Data Track - Data Track
EXTD=
EXTT0=
EXTT1=
EXTT2=
EXTT3=
EXTT4=
EXTT5=
EXTT6=
EXTT7=
EXTT8=
EXTT9=
EXTT10=
EXTT11=
EXTT12=
EXTT13=
EXTT14=
EXTT15=
PLAYORDER=
